<?xml version="1.0" encoding="utf-8"?>
<!-- Generator: Adobe Illustrator 27.7.0, SVG Export Plug-In . SVG Version: 6.00 Build 0)  -->
<svg version="1.1" id="Layer_1" xmlns="http://www.w3.org/2000/svg" xmlns:xlink="http://www.w3.org/1999/xlink" x="0px" y="0px"
	 viewBox="0 0 262 331" style="enable-background:new 0 0 262 331;" xml:space="preserve">
<style type="text/css">
	.st0{fill:#FFFFFF;}
</style>
<path class="st0" d="M167.8,146.9c0.1-0.2,0.1-0.3,0.1-0.5c0.1-0.5,0.2-1,0.4-1.5c0.1-0.4,0.2-0.8,0.2-1.2c0.1-0.3,0.1-0.7,0.2-1
	c0.1-0.5,0.2-1.1,0.2-1.6c0-0.2,0.1-0.5,0.1-0.7c0.1-0.6,0.1-1.2,0.1-1.8c0-0.2,0-0.4,0-0.6c0-0.6,0.1-1.2,0-1.9c0-0.2,0-0.4,0-0.7
	c0-0.6,0-1.2-0.1-1.8c0-0.2,0-0.4,0-0.7c0-0.6-0.1-1.2-0.2-1.9c0-0.2,0-0.4-0.1-0.5c-0.1-0.7-0.2-1.4-0.4-2.1c0-0.1,0-0.1,0-0.2
	c-1.7-8.6-6.2-16.5-13.1-22.4c-3.8-4.3-6.2-9.3-6.1-15.6H149c0.1-7,3.2-12.4,7.9-17c21.9-21.2,13-58.2-16.3-66.7
	c-7.2-2.1-14.9-2.1-22.2,0C89.1,15,80.1,52,102.1,73.2c4.8,4.7,7.9,10.2,7.9,17.4h0.1c-0.1,6-2.5,10.9-6.2,15.1
	c-6.2,5.2-10.4,12.1-12.5,19.6c-0.1,0.2-0.1,0.4-0.1,0.6c-0.1,0.5-0.3,1-0.4,1.5c-0.1,0.4-0.2,0.8-0.2,1.2c-0.1,0.3-0.1,0.7-0.2,1.1
	c-0.1,0.5-0.2,1-0.2,1.6c0,0.3-0.1,0.5-0.1,0.8c-0.1,0.6-0.1,1.2-0.1,1.7c0,0.2,0,0.5,0,0.7c0,0.6,0,1.2,0,1.8c0,0.2,0,0.5,0,0.7
	c0,0.6,0,1.2,0.1,1.8c0,0.2,0,0.5,0.1,0.7c0.1,0.6,0.1,1.2,0.2,1.8c0,0.2,0.1,0.4,0.1,0.6c0.1,0.7,0.2,1.4,0.3,2
	c0,0.1,0,0.2,0.1,0.3c1.8,8.5,6.2,16.5,13.1,22.3c3.8,4.3,6.2,9.3,6.2,15.5h0.1c-0.1,6.9-3.2,12.3-7.9,16.8
	c-22,21.2-13.1,58.2,16.2,66.8c7.2,2.1,15,2.1,22.2,0c29.3-8.5,38.4-45.4,16.5-66.7c-4.8-4.7-7.9-10.2-7.9-17.4h-0.1
	c0.1-6.1,2.5-11,6.2-15.2C161.5,161.3,165.7,154.4,167.8,146.9L167.8,146.9z"/>
<path class="st0" d="M202.4,237.9c0.1-0.1,0.3-0.3,0.4-0.4c0.4-0.4,0.7-0.8,1-1.2c0.3-0.3,0.5-0.6,0.8-0.9c0.2-0.3,0.4-0.5,0.6-0.8
	c0.3-0.4,0.7-0.8,1-1.3c0.1-0.2,0.3-0.4,0.4-0.6c0.4-0.5,0.7-1,1-1.5c0.1-0.2,0.2-0.4,0.3-0.5c0.3-0.5,0.6-1.1,0.9-1.6
	c0.1-0.2,0.2-0.4,0.3-0.6c0.3-0.5,0.6-1.1,0.8-1.6c0.1-0.2,0.2-0.4,0.3-0.6c0.3-0.6,0.5-1.2,0.7-1.7c0.1-0.2,0.1-0.3,0.2-0.5
	c0.2-0.7,0.5-1.3,0.7-2c0-0.1,0-0.1,0-0.2c2.6-8.3,2.6-17.5-0.6-25.9c-1.3-5.6-0.9-11.1,2.1-16.6h-0.1c3.5-6,8.8-9.3,15.1-11
	c29.5-8,39.5-44.7,17.9-66.3c-5.3-5.4-12.1-9.1-19.4-10.7c-29.8-6.7-55.5,21.3-46.5,50.6c2,6.4,2,12.8-1.5,19h0.1
	c-3,5.2-7.5,8.3-12.7,10.2c-7.9,1.6-15,5.6-20.4,11.2c-0.1,0.1-0.3,0.3-0.4,0.4c-0.4,0.4-0.7,0.8-1.1,1.2c-0.3,0.3-0.5,0.6-0.8,0.9
	c-0.2,0.3-0.4,0.5-0.7,0.8c-0.3,0.4-0.6,0.8-0.9,1.2c-0.1,0.2-0.3,0.4-0.5,0.7c-0.3,0.5-0.7,1-1,1.5c-0.1,0.2-0.3,0.4-0.4,0.6
	c-0.3,0.5-0.6,1-0.9,1.5c-0.1,0.2-0.2,0.4-0.3,0.7c-0.3,0.5-0.5,1.1-0.8,1.6c-0.1,0.2-0.2,0.4-0.3,0.7c-0.2,0.6-0.5,1.1-0.7,1.7
	c-0.1,0.2-0.1,0.4-0.2,0.5c-0.2,0.6-0.5,1.3-0.7,1.9c0,0.1-0.1,0.2-0.1,0.3c-2.6,8.3-2.5,17.5,0.7,25.9c1.3,5.6,0.9,11.1-2.1,16.6
	h0.1c-3.5,6-8.8,9.2-15.1,10.9c-29.5,7.9-39.6,44.6-18.1,66.3c5.3,5.4,12.1,9.1,19.4,10.8c29.8,6.8,55.5-21.2,46.6-50.4
	c-2-6.4-2-12.8,1.5-19h-0.1c3-5.3,7.5-8.4,12.8-10.3C190,247.4,197,243.4,202.4,237.9L202.4,237.9L202.4,237.9z"/>
<path class="st0" d="M57.6,237.9c-0.1-0.1-0.3-0.3-0.4-0.4c-0.4-0.4-0.7-0.8-1.1-1.2c-0.3-0.3-0.5-0.6-0.8-0.9
	c-0.2-0.3-0.4-0.5-0.6-0.8c-0.3-0.4-0.7-0.8-1-1.3c-0.1-0.2-0.3-0.4-0.4-0.6c-0.4-0.5-0.7-1-1-1.5c-0.1-0.2-0.2-0.4-0.3-0.5
	c-0.3-0.5-0.6-1.1-0.9-1.6c-0.1-0.2-0.2-0.4-0.3-0.6c-0.3-0.5-0.6-1.1-0.8-1.6c-0.1-0.2-0.2-0.4-0.3-0.6c-0.3-0.6-0.5-1.1-0.7-1.7
	c-0.1-0.2-0.1-0.3-0.2-0.5c-0.2-0.7-0.5-1.3-0.7-2c0-0.1,0-0.1-0.1-0.2c-2.6-8.3-2.6-17.5,0.6-25.9c1.3-5.6,0.9-11.1-2.1-16.6h0.1
	c-3.5-6-8.8-9.3-15.1-11C2,160.3-8,123.6,13.6,102c5.3-5.3,12.1-9.1,19.4-10.7c29.8-6.7,55.5,21.3,46.5,50.6c-2,6.4-2,12.8,1.4,19
	h-0.1c3,5.2,7.5,8.3,12.7,10.2c7.9,1.6,15,5.6,20.4,11.1c0.1,0.1,0.3,0.3,0.4,0.4c0.4,0.4,0.7,0.8,1.1,1.2c0.3,0.3,0.5,0.6,0.8,0.9
	c0.2,0.3,0.4,0.6,0.7,0.8c0.3,0.4,0.6,0.8,0.9,1.2c0.1,0.2,0.3,0.4,0.5,0.7c0.3,0.5,0.7,1,1,1.4c0.1,0.2,0.3,0.4,0.4,0.6
	c0.3,0.5,0.6,1,0.9,1.5c0.1,0.2,0.2,0.4,0.3,0.6c0.3,0.5,0.5,1.1,0.8,1.6c0.1,0.2,0.2,0.4,0.3,0.7c0.2,0.6,0.5,1.1,0.7,1.7
	c0.1,0.2,0.1,0.4,0.2,0.6c0.2,0.6,0.5,1.3,0.7,1.9c0,0.1,0.1,0.2,0.1,0.3c2.6,8.3,2.5,17.5-0.7,25.9c-1.3,5.6-0.9,11.1,2.1,16.6H125
	c3.5,6,8.8,9.2,15.1,10.9c29.5,7.9,39.6,44.6,18.1,66.3c-5.3,5.4-12.1,9.1-19.4,10.8c-29.8,6.8-55.6-21.2-46.6-50.4
	c1.9-6.4,2-12.8-1.5-19h0.1c-3-5.3-7.5-8.5-12.8-10.3C70.1,247.4,63.1,243.4,57.6,237.9L57.6,237.9L57.6,237.9z"/>
<path d="M109.4,35.1c-2.9-0.2-4.7-1.7-4.9-4.7c-0.1-2.6,1.2-4.4,3.8-4.4c3.1,0,5.1,2.2,5.4,5.1C113.9,33.5,112,34.9,109.4,35.1z"/>
<path d="M155.1,35.4c-0.4,3-1.6,4.6-4.3,4.6s-4-1.7-4-4.2s1.4-4.1,4.1-4.1C153.8,31.7,154.6,33.6,155.1,35.4L155.1,35.4z"/>
<path d="M135.5,59.1c-2-0.2-4.5-0.4-7.1-0.6c-5.4-0.5-10.6-0.9-13.3,5.3c-0.6,1.5-2.3,2-3.7,2.6c-1.6,0.7-3,0.3-4.1-1.1
	c-1.1-1.5-0.6-2.9,0.6-4.1c1.6-1.6,3.5-2.8,4.4-4.9c1.2-2.8,0.7-5.3-1.4-7.5c-1.6-1.7-2.1-3.7-0.2-5.4c2.1-1.9,3.7,0,5.3,1.3
	c0.3,0.2,0.7,0.4,0.7,0.7c2,7.8,8.3,6.4,13.9,6.5c2.4,0,4.8,0,7.1,0.2c2.4,0.1,5.2,0.2,5,3.6c-0.2,3.2-2.7,3.5-5.3,3.4
	C137.1,59.1,136.6,59.1,135.5,59.1L135.5,59.1z"/>
<path d="M109.4,35.1c-2.9-0.2-4.7-1.7-4.9-4.7c-0.1-2.6,1.2-4.4,3.8-4.4c3.1,0,5.1,2.2,5.4,5.1C113.9,33.5,112,34.9,109.4,35.1z"/>
<path d="M155.1,35.4c-0.4,3-1.6,4.6-4.3,4.6s-4-1.7-4-4.2s1.4-4.1,4.1-4.1C153.8,31.7,154.6,33.6,155.1,35.4L155.1,35.4z"/>
</svg>
