<?xml version="1.0" encoding="utf-8"?>
<!-- Generator: Adobe Illustrator 27.7.0, SVG Export Plug-In . SVG Version: 6.00 Build 0)  -->
<svg version="1.1" id="Layer_1" xmlns="http://www.w3.org/2000/svg" xmlns:xlink="http://www.w3.org/1999/xlink" x="0px" y="0px"
	 viewBox="0 0 304 296" style="enable-background:new 0 0 304 296;" xml:space="preserve">
<style type="text/css">
	.st0{fill:#FFFFFF;}
	.st1{clip-path:url(#SVGID_00000049187512140806575440000008400082064503222927_);}
</style>
<path class="st0" d="M195,61.7l41.8-26.2c9-5.7,20,3.6,16,13.4l-18.6,45.7c-2.7,6.6,1.6,14,8.7,15l48.8,6.8
	c10.6,1.5,13.1,15.6,3.6,20.6l-43.6,23c-6.3,3.4-7.8,11.8-3,17.1l33.1,36.6c7.2,7.9,0,20.4-10.5,18.1l-48.2-10.4
	c-7-1.5-13.6,4-13.3,11.2l1.8,49.3c0.4,10.7-13.1,15.6-19.7,7.2l-30.3-38.9c-4.4-5.7-12.9-5.7-17.4,0L114.1,289
	c-6.6,8.4-20,3.5-19.6-7.2l1.8-49.3c0.3-7.2-6.3-12.6-13.3-11.2l-48.2,10.4c-10.4,2.2-17.6-10.2-10.5-18.1L57.4,177
	c4.8-5.3,3.3-13.7-3-17.1L10.8,137c-9.4-5-6.9-19.1,3.6-20.6l48.9-6.8c7.1-1,11.4-8.4,8.7-15L53.4,48.9c-4-9.9,7-19.1,16-13.4
	l41.8,26.2c6.1,3.8,14.1,0.9,16.3-5.9l15.1-46.9c3.3-10.1,17.6-10.1,20.9,0l15.1,46.9C180.8,62.6,188.9,65.5,195,61.7L195,61.7z"/>
<g>
	<g>
		<defs>
			<rect id="SVGID_1_" x="113.1" y="114.8" width="77.7" height="33.7"/>
		</defs>
		<clipPath id="SVGID_00000019677366138247564350000013271811712966138241_">
			<use xlink:href="#SVGID_1_"  style="overflow:visible;"/>
		</clipPath>
		<g style="clip-path:url(#SVGID_00000019677366138247564350000013271811712966138241_);">
			<path d="M152,148.4c-5.3-0.3-10.9-1.2-15.9-4.3c-2.2-1.3-3.3-3.1-2-5.6c1.2-2.3,3.3-2.5,5.2-1.5c9.7,5.1,19.1,4.1,28.4-1.3
				c2.1-1.2,4.3-1.6,5.8,0.9c1.7,2.8,0.1,4.6-2.2,6C165.6,146.2,159.2,148.3,152,148.4z"/>
			<path d="M179.9,125.3c-3.7-0.5-7.3-1-10.5-3.2c-1.7-1.2-3.5-2.6-2.3-5s3.5-2.9,5.8-1.8c4.2,2.2,8.2,2,12.4,0.2c2.3-1,4,0,5.1,2
				c1.3,2.3-0.1,3.9-1.9,5.1C185.9,124.6,182.7,124.7,179.9,125.3L179.9,125.3z"/>
			<path d="M123.8,130.1c-2.9-0.2-5.7-0.7-8.2-2.2c-2.2-1.3-3.2-3.2-2-5.6c1.1-2.3,3.2-2.6,5.2-1.5c3.6,2.1,6.9,1.8,10.2-0.6
				c1.9-1.4,4-0.8,5.4,1.1c1.8,2.4,0.3,4.3-1.5,5.8C130.3,129.1,127.2,129.9,123.8,130.1L123.8,130.1z"/>
		</g>
	</g>
</g>
</svg>
