<?xml version="1.0" encoding="utf-8"?>
<!-- Generator: Adobe Illustrator 27.7.0, SVG Export Plug-In . SVG Version: 6.00 Build 0)  -->
<svg version="1.1" id="Layer_1" xmlns="http://www.w3.org/2000/svg" xmlns:xlink="http://www.w3.org/1999/xlink" x="0px" y="0px"
	 viewBox="0 0 193 391" style="enable-background:new 0 0 193 391;" xml:space="preserve">
<style type="text/css">
	.st0{fill:#FFFFFF;}
	.st1{clip-path:url(#SVGID_00000083807336570193267760000005159647631011961768_);}
</style>
<path class="st0" d="M149.3,256.4c22.7-12.5,37.5-32.8,37.5-55.7s-16.1-45-40.5-57.3c17.3-14.5,28.4-36.2,28.4-60.6
	C174.7,39.3,139.4,4,95.9,4S17.1,39.3,17.1,82.8c0,24.3,11.1,46.1,28.4,60.6C21.1,155.8,5,176.8,5,200.7s14.8,43.2,37.5,55.7
	c-15.6,14.4-25.4,35-25.4,57.9c0,43.5,35.3,71.7,78.8,71.7s78.8-28.2,78.8-71.7C174.7,291.4,165,270.8,149.3,256.4z"/>
<g>
	<g>
		<defs>
			<rect id="SVGID_1_" x="59.5" y="43" width="72.9" height="38.9"/>
		</defs>
		<clipPath id="SVGID_00000086650639106369176370000014966584035025075613_">
			<use xlink:href="#SVGID_1_"  style="overflow:visible;"/>
		</clipPath>
		<g style="clip-path:url(#SVGID_00000086650639106369176370000014966584035025075613_);">
			<path d="M97.8,81.8c-7.9,0.1-14.1-1.3-19.9-3.8c-3-1.3-6.5-3.2-4.4-7.4c1.6-3.4,4.2-5.8,8.7-3.8c8.3,3.8,16.9,3.7,25.5,1.1
				c3.7-1.2,6.8-0.4,8,3.4c1.3,3.9-1.1,6.4-4.4,7.8C106.6,81.3,101.5,82,97.8,81.8z"/>
			<path d="M66.7,59c-4.3-0.9-7.4-3.1-7.2-7.8c0.2-5,3.3-7.6,8.3-7.4c4.7,0.2,5.9,3.9,6,7.6C73.9,55.8,71.4,58.6,66.7,59L66.7,59z"
				/>
			<path d="M132.4,50.6c-0.5,4.2-2.8,7.1-7.5,7c-4.8-0.1-6.8-3.4-6.8-7.9c0-4.4,2.7-6.7,6.9-6.7C129.6,43,132.3,45.5,132.4,50.6
				L132.4,50.6z"/>
		</g>
	</g>
</g>
</svg>
