<?xml version="1.0" encoding="utf-8"?>
<!-- Generator: Adobe Illustrator 27.7.0, SVG Export Plug-In . SVG Version: 6.00 Build 0)  -->
<svg version="1.1" id="Layer_1" xmlns="http://www.w3.org/2000/svg" xmlns:xlink="http://www.w3.org/1999/xlink" x="0px" y="0px"
	 viewBox="0 0 298 251" style="enable-background:new 0 0 298 251;" xml:space="preserve">
<style type="text/css">
	.st0{clip-path:url(#SVGID_00000176743904846424378320000016773058692696772506_);}
	.st1{fill:#AD95F2;}
</style>
<g>
	<defs>
		<rect id="SVGID_1_" x="7.1" y="10.4" width="286.7" height="233.6"/>
	</defs>
	<clipPath id="SVGID_00000041273184428024812040000007846577527876297918_">
		<use xlink:href="#SVGID_1_"  style="overflow:visible;"/>
	</clipPath>
	<g style="clip-path:url(#SVGID_00000041273184428024812040000007846577527876297918_);">
		<path class="st1" d="M247.9,219.8l-44.3-75.7c-1.7-2.9-3.7-5.6-5.6-8.3c-4.2-5.9-3.5-14.3,2.1-19.5L233.3,86l56.2-51.3
			c11.5-10.5-1.3-24.2-22.4-24.2H33.8c-21.1,0-33.9,13.8-22.4,24.2L67.7,86l33.2,30.3c5.6,5.1,6.3,13.5,2.1,19.5
			c-1.9,2.7-3.9,5.5-5.6,8.3L53,219.8c-8.9,15.4,1.3,24.2,22.4,24.2h150C246.6,244,255,235.2,247.9,219.8z"/>
	</g>
</g>
<path d="M193.9,71c-6.3-2.4-12.7-1.3-19.3,0.1c-3.3,0.7-6.1-0.5-6.7-4.2c-0.5-3.3,0.5-6.2,3.9-7.1c8.2-2.2,16.5-2.9,24.7-0.1
	c3.3,1.1,5.9,3.4,4.8,7.4C200.4,70.7,197.3,71,193.9,71z"/>
<path d="M145.6,85.2c6.3,2.4,12.7,1.3,19.3-0.1c3.3-0.7,6.1,0.5,6.7,4.2c0.5,3.3-0.5,6.2-3.9,7.1c-8.2,2.2-16.5,2.9-24.7,0.1
	c-3.3-1.1-5.9-3.4-4.8-7.4C139.1,85.6,142.2,85.2,145.6,85.2z"/>
<path d="M123.4,57.5c4.9,0.3,8.3-0.2,11.3,1.6c2.9,1.8,4.2,4.4,3,7.7c-1,2.8-3.2,4.9-6.2,3.8c-4.9-1.7-9.4-0.8-14.1,0.5
	c-3.6,0.9-7.6,1.1-8.9-3.6c-1.3-4.8,1.7-7.5,5.9-8.6C117.8,57.9,121.5,57.7,123.4,57.5L123.4,57.5z"/>
</svg>
