<?xml version="1.0" encoding="utf-8"?>
<!-- Generator: Adobe Illustrator 27.7.0, SVG Export Plug-In . SVG Version: 6.00 Build 0)  -->
<svg version="1.1" id="Layer_1" xmlns="http://www.w3.org/2000/svg" xmlns:xlink="http://www.w3.org/1999/xlink" x="0px" y="0px"
	 viewBox="0 0 359 268" style="enable-background:new 0 0 359 268;" xml:space="preserve">
<style type="text/css">
	.st0{clip-path:url(#SVGID_00000175293254356918016120000008259843157378332328_);}
	.st1{fill:#FFC47A;}
	.st2{clip-path:url(#SVGID_00000019680253684120489860000006617815809700590015_);}
	.st3{fill:#EF7333;}
</style>
<g>
	<defs>
		<rect id="SVGID_1_" x="5.6" y="6.3" width="346.8" height="256.2"/>
	</defs>
	<clipPath id="SVGID_00000039847868613443382510000017906429542202031018_">
		<use xlink:href="#SVGID_1_"  style="overflow:visible;"/>
	</clipPath>
	<g style="clip-path:url(#SVGID_00000039847868613443382510000017906429542202031018_);">
		<path class="st1" d="M116.8,262.5c-20,0-38.6-7.8-53.9-22.7c-10.1-9.8-18.5-22.4-25.7-38.4c-9.6-21.4-16.9-48.7-22.4-83.4
			C7.7,73,6,29,5.6,13.1c-0.1-3.4,2.7-6.2,6-6.2h42.5l42.7-0.5c3.3,0,6,2.6,6.1,5.9c0.4,12,1.6,40.9,5.5,72.1
			c2.9,23.5,6.4,40.9,9.7,53.6c1.4,5.4,8.8,6.1,11.3,1.2c1.4-2.8,2.7-5.4,3.8-7.7c8.2-16.6,17.5-35.5,30.5-51.2
			c25-30.4,53.7-36.8,73.3-36.8c28.4,0,79.6,13,102.9,100c10.2,37.8,12.1,77.9,12.4,96c0.1,3.4-2.7,6.1-6,6.1H261
			c-3.3,0-6-2.6-6.1-5.9c-0.3-15.6-2-37.1-5.8-56.7c-2.3-11.8-4.9-20.8-7.5-27.4c-1.8-4.8-8.5-5.2-10.9-0.7
			c-3.7,6.7-7.4,14.2-10.2,19.8c-8.2,16.6-17.5,35.5-30.5,51.2C165.1,256.2,136.4,262.5,116.8,262.5L116.8,262.5z"/>
	</g>
</g>
<g>
	<defs>
		<rect id="SVGID_00000126289847010473134750000015394515651727151242_" x="27.4" y="29.8" width="66.9" height="65.8"/>
	</defs>
	<clipPath id="SVGID_00000126291170025582693330000016696203240419445145_">
		<use xlink:href="#SVGID_00000126289847010473134750000015394515651727151242_"  style="overflow:visible;"/>
	</clipPath>
	<g style="clip-path:url(#SVGID_00000126291170025582693330000016696203240419445145_);">
		<path d="M56.2,94.6C43.4,93.4,29.5,75.3,31.9,63c0.8-4.3,3.8-6.8,7.7-7.5c12.6-2.3,25.3-3.3,37.6,1.6c6.8,2.7,11,7.8,10.1,15.8
			c-0.9,8.3-6.7,15.1-14.3,17c1-7.6-1.2-13.9-7.7-18.3c-5.1-3.5-9.9-2.7-13.9,1.5c-4.3,4.5-1.7,8.8,2.3,11.7
			C57.5,87.6,57.8,90.6,56.2,94.6L56.2,94.6z"/>
		<path class="st3" d="M56.2,94.6c1.7-3.9,1.3-6.9-2.5-9.8c-4-2.9-6.5-7.2-2.3-11.7c3.9-4.2,8.8-4.9,13.9-1.5
			C71.8,76.1,74,82.3,73,90C68,93.9,63,97.3,56.2,94.6L56.2,94.6z"/>
		<path d="M34.8,29.8c4.6,0.1,6.9,2.3,6.9,6.6c0,4.9-3.2,6.7-7.4,6.5c-3.9-0.2-6.9-2.3-6.9-6.5C27.5,31.7,30.8,29.9,34.8,29.8z"/>
		<path d="M94.4,39.6c-1.1,3.8-2.9,7.1-7.1,6.8c-3.8-0.3-6.7-2.6-6.4-6.9c0.3-4,2.9-6.8,6.8-6.6C91.5,32.9,93.5,36.1,94.4,39.6z"/>
	</g>
</g>
</svg>
