<?xml version="1.0" encoding="utf-8"?>
<!-- Generator: Adobe Illustrator 27.7.0, SVG Export Plug-In . SVG Version: 6.00 Build 0)  -->
<svg version="1.1" id="Layer_1" xmlns="http://www.w3.org/2000/svg" xmlns:xlink="http://www.w3.org/1999/xlink" x="0px" y="0px"
	 viewBox="0 0 263 290" style="enable-background:new 0 0 263 290;" xml:space="preserve">
<style type="text/css">
	.st0{clip-path:url(#SVGID_00000145023039810898654230000000571281320281098114_);}
	.st1{fill:#386EDF;}
	.st2{clip-path:url(#SVGID_00000074408674218227057350000010837079494748767619_);}
</style>
<g>
	<defs>
		<rect id="SVGID_1_" x="2.7" y="6.2" width="253.9" height="278.9"/>
	</defs>
	<clipPath id="SVGID_00000053516079304113868890000009372879011720232344_">
		<use xlink:href="#SVGID_1_"  style="overflow:visible;"/>
	</clipPath>
	<g style="clip-path:url(#SVGID_00000053516079304113868890000009372879011720232344_);">
		<path class="st1" d="M256.6,133.2c0-70.1-56.8-127-127-127c-70.1,0-127,56.8-127,127c0,0.2,0,0.5,0,0.7v135.7
			c0,8.6,7,15.6,15.6,15.6h70.2c8.6,0,15.6-7,15.6-15.6c0,0,0-0.1,0-0.1c0-14.2,11.5-25.7,25.7-25.7s25.7,11.5,25.7,25.7
			c0,0,0,0.1,0,0.1c0,8.6,7,15.6,15.6,15.6h70.2c8.6,0,15.6-7,15.6-15.6V133.9C256.6,133.7,256.6,133.4,256.6,133.2z"/>
	</g>
</g>
<g>
	<defs>
		<rect id="SVGID_00000182487458670513893580000016197498836090967980_" x="88.2" y="113.1" width="84.6" height="54.1"/>
	</defs>
	<clipPath id="SVGID_00000165930441889788154980000016288268716629424814_">
		<use xlink:href="#SVGID_00000182487458670513893580000016197498836090967980_"  style="overflow:visible;"/>
	</clipPath>
	<g style="clip-path:url(#SVGID_00000165930441889788154980000016288268716629424814_);">
		<path d="M124.4,167.2c-13.4,0-21.3-7-21.2-18.1c0-4.5,1.7-8.1,6.2-9.3c4.7-1.2,8,1.3,9.1,5.8c2.9,11.8,8.6,6.9,14.2,2.6
			c4.1-3.1,7.4-10.3,13.4-3.4c5.9,6.8,0.3,10.9-4.4,15.4C136.5,165.3,130.3,166.5,124.4,167.2z"/>
		<path d="M106.1,121.2c0.1,6.9-2.1,10.4-8.2,10.6c-6,0.2-9.1-3.3-9.6-8.6c-0.5-6.1,3.3-9.9,9.2-10.1
			C103.3,112.9,105.8,117,106.1,121.2L106.1,121.2z"/>
		<path d="M163.7,121.7c6.4,0.8,9.5,4.3,9.1,10.4c-0.4,5.9-4.1,8.5-9.6,8.2c-5.9-0.3-8.2-4.7-8.4-9.8
			C154.6,124.8,158.6,122.4,163.7,121.7L163.7,121.7z"/>
	</g>
</g>
</svg>
